<svg width="14" height="14" viewBox="0 0 14 14" fill="none" xmlns="http://www.w3.org/2000/svg">
<path fill-rule="evenodd" clip-rule="evenodd" d="M0.333344 6.99998C0.333344 3.31998 3.32001 0.333313 7.00001 0.333313C10.68 0.333313 13.6667 3.31998 13.6667 6.99998C13.6667 10.68 10.68 13.6666 7.00001 13.6666C3.32001 13.6666 0.333344 10.68 0.333344 6.99998ZM1.66668 6.99998C1.66668 9.93998 4.06001 12.3333 7.00001 12.3333C9.94001 12.3333 12.3333 9.93998 12.3333 6.99998C12.3333 4.05998 9.94001 1.66665 7.00001 1.66665C4.06001 1.66665 1.66668 4.05998 1.66668 6.99998ZM7.66668 9.66665V11H6.33334V9.66665H7.66668ZM4.45334 4.88665C4.82001 3.67331 6.03334 2.82665 7.40668 3.02665C8.56668 3.19998 9.48001 4.17998 9.64001 5.33998C9.79207 6.41567 9.19717 6.93471 8.62298 7.43567C8.51748 7.52772 8.41268 7.61915 8.31334 7.71331C8.23334 7.78665 8.16001 7.85998 8.09334 7.93998C8.09001 7.94331 8.08668 7.94831 8.08334 7.95331C8.08001 7.95831 8.07668 7.96331 8.07334 7.96665C8.00668 8.04665 7.94001 8.13331 7.88668 8.22665C7.88001 8.23665 7.87501 8.24665 7.87001 8.25665C7.86501 8.26665 7.86001 8.27665 7.85334 8.28665C7.74001 8.48665 7.66668 8.71998 7.66668 8.99998H6.33334C6.33334 8.66665 6.38668 8.39331 6.46668 8.16665C6.4696 8.15788 6.47124 8.15039 6.47272 8.14362C6.47462 8.13495 6.47627 8.12747 6.48001 8.11998C6.48334 8.10998 6.48834 8.10165 6.49334 8.09331C6.49834 8.08498 6.50334 8.07665 6.50668 8.06665C6.55334 7.94665 6.61334 7.83331 6.67334 7.73331C6.67668 7.72665 6.68001 7.72165 6.68334 7.71665C6.68668 7.71165 6.69001 7.70665 6.69334 7.69998C6.69334 7.69665 6.69501 7.69498 6.69668 7.69331C6.69834 7.69165 6.70001 7.68998 6.70001 7.68665C6.92706 7.3447 7.23157 7.11051 7.51635 6.8915C7.92557 6.57678 8.29403 6.29341 8.33334 5.76665C8.38668 5.11998 7.92001 4.49998 7.28668 4.36665C6.60001 4.21998 5.96668 4.62665 5.75334 5.21998C5.66001 5.47331 5.44001 5.66665 5.16668 5.66665H5.03334C4.62668 5.66665 4.33334 5.27331 4.45334 4.88665Z" fill="#595959"/>
</svg>
